<mxfile host="Electron" modified="2023-12-05T11:54:58.794Z" agent="Mozilla/5.0 (Windows NT 10.0; Win64; x64) AppleWebKit/537.36 (KHTML, like Gecko) draw.io/22.1.2 Chrome/114.0.5735.289 Electron/25.9.4 Safari/537.36" etag="bIgviyhH_35IHtaKbpIg" version="22.1.2" type="device" pages="2">
  <diagram name="第 1 页" id="j1IvKc-4j0pZnj1ZVIw_">
    <mxGraphModel dx="882" dy="687" grid="1" gridSize="10" guides="1" tooltips="1" connect="1" arrows="1" fold="1" page="1" pageScale="1" pageWidth="827" pageHeight="1169" math="0" shadow="0">
      <root>
        <mxCell id="0" />
        <mxCell id="1" parent="0" />
        <mxCell id="uin81MQZJOPahrOuFoBm-1" value="Serial" style="swimlane;fontStyle=1;align=center;verticalAlign=top;childLayout=stackLayout;horizontal=1;startSize=26;horizontalStack=0;resizeParent=1;resizeParentMax=0;resizeLast=0;collapsible=1;marginBottom=0;whiteSpace=wrap;html=1;" vertex="1" parent="1">
          <mxGeometry x="165" y="100" width="270" height="208" as="geometry" />
        </mxCell>
        <mxCell id="uin81MQZJOPahrOuFoBm-2" value="- m_handle: HMODULE&lt;br&gt;- m_link: IDataLinkTransport*" style="text;strokeColor=none;fillColor=none;align=left;verticalAlign=top;spacingLeft=4;spacingRight=4;overflow=hidden;rotatable=0;points=[[0,0.5],[1,0.5]];portConstraint=eastwest;whiteSpace=wrap;html=1;" vertex="1" parent="uin81MQZJOPahrOuFoBm-1">
          <mxGeometry y="26" width="270" height="44" as="geometry" />
        </mxCell>
        <mxCell id="uin81MQZJOPahrOuFoBm-3" value="" style="line;strokeWidth=1;fillColor=none;align=left;verticalAlign=middle;spacingTop=-1;spacingLeft=3;spacingRight=3;rotatable=0;labelPosition=right;points=[];portConstraint=eastwest;strokeColor=inherit;" vertex="1" parent="uin81MQZJOPahrOuFoBm-1">
          <mxGeometry y="70" width="270" height="8" as="geometry" />
        </mxCell>
        <mxCell id="uin81MQZJOPahrOuFoBm-4" value="+ init(): bool&lt;br&gt;+ deInit(): void&lt;br&gt;+ openSerial(comName : string,band : int) : bool&lt;br&gt;+ closeSerial() : bool&lt;br&gt;+ write(cmd : char*,len : int) : bool&lt;br&gt;+ find(find : char*,len : int,timeout : int): bool&lt;br&gt;+ get(start : char*,slen : int,end : char*,elen : int,get char*&amp;amp;,len : int&amp;amp;,timeout : int): bool" style="text;strokeColor=none;fillColor=none;align=left;verticalAlign=top;spacingLeft=4;spacingRight=4;overflow=hidden;rotatable=0;points=[[0,0.5],[1,0.5]];portConstraint=eastwest;whiteSpace=wrap;html=1;" vertex="1" parent="uin81MQZJOPahrOuFoBm-1">
          <mxGeometry y="78" width="270" height="130" as="geometry" />
        </mxCell>
        <mxCell id="uin81MQZJOPahrOuFoBm-6" value="&lt;p style=&quot;margin:0px;margin-top:4px;text-align:center;&quot;&gt;&lt;b&gt;function&lt;/b&gt;&lt;/p&gt;&lt;hr size=&quot;1&quot;&gt;&lt;div style=&quot;height:2px;&quot;&gt;crc32Calculate():&lt;/div&gt;" style="verticalAlign=top;align=left;overflow=fill;fontSize=12;fontFamily=Helvetica;html=1;whiteSpace=wrap;" vertex="1" parent="1">
          <mxGeometry x="550" y="100" width="140" height="60" as="geometry" />
        </mxCell>
        <mxCell id="uin81MQZJOPahrOuFoBm-8" value="burning" style="swimlane;fontStyle=1;align=center;verticalAlign=top;childLayout=stackLayout;horizontal=1;startSize=26;horizontalStack=0;resizeParent=1;resizeParentMax=0;resizeLast=0;collapsible=1;marginBottom=0;whiteSpace=wrap;html=1;" vertex="1" parent="1">
          <mxGeometry x="220" y="390" width="160" height="168" as="geometry" />
        </mxCell>
        <mxCell id="uin81MQZJOPahrOuFoBm-9" value="+ m_allBinBuf: char*&lt;br&gt;+ m_future: future*" style="text;strokeColor=none;fillColor=none;align=left;verticalAlign=top;spacingLeft=4;spacingRight=4;overflow=hidden;rotatable=0;points=[[0,0.5],[1,0.5]];portConstraint=eastwest;whiteSpace=wrap;html=1;" vertex="1" parent="uin81MQZJOPahrOuFoBm-8">
          <mxGeometry y="26" width="160" height="54" as="geometry" />
        </mxCell>
        <mxCell id="uin81MQZJOPahrOuFoBm-10" value="" style="line;strokeWidth=1;fillColor=none;align=left;verticalAlign=middle;spacingTop=-1;spacingLeft=3;spacingRight=3;rotatable=0;labelPosition=right;points=[];portConstraint=eastwest;strokeColor=inherit;" vertex="1" parent="uin81MQZJOPahrOuFoBm-8">
          <mxGeometry y="80" width="160" height="8" as="geometry" />
        </mxCell>
        <mxCell id="uin81MQZJOPahrOuFoBm-11" value="+ getBinFile(): bool&lt;br&gt;+ jumpBoot(): bool&lt;br&gt;+ sendOneFrame(); bool&lt;br&gt;+ waitUpdateOver(): bool" style="text;strokeColor=none;fillColor=none;align=left;verticalAlign=top;spacingLeft=4;spacingRight=4;overflow=hidden;rotatable=0;points=[[0,0.5],[1,0.5]];portConstraint=eastwest;whiteSpace=wrap;html=1;" vertex="1" parent="uin81MQZJOPahrOuFoBm-8">
          <mxGeometry y="88" width="160" height="80" as="geometry" />
        </mxCell>
        <mxCell id="RhStBzJ_8Y4dhNbDi5qE-1" value="file" style="swimlane;fontStyle=1;align=center;verticalAlign=top;childLayout=stackLayout;horizontal=1;startSize=26;horizontalStack=0;resizeParent=1;resizeParentMax=0;resizeLast=0;collapsible=1;marginBottom=0;whiteSpace=wrap;html=1;" vertex="1" parent="1">
          <mxGeometry x="530" y="320" width="160" height="120" as="geometry" />
        </mxCell>
        <mxCell id="RhStBzJ_8Y4dhNbDi5qE-2" value="+ m_openFlag: bool" style="text;strokeColor=none;fillColor=none;align=left;verticalAlign=top;spacingLeft=4;spacingRight=4;overflow=hidden;rotatable=0;points=[[0,0.5],[1,0.5]];portConstraint=eastwest;whiteSpace=wrap;html=1;" vertex="1" parent="RhStBzJ_8Y4dhNbDi5qE-1">
          <mxGeometry y="26" width="160" height="26" as="geometry" />
        </mxCell>
        <mxCell id="RhStBzJ_8Y4dhNbDi5qE-3" value="" style="line;strokeWidth=1;fillColor=none;align=left;verticalAlign=middle;spacingTop=-1;spacingLeft=3;spacingRight=3;rotatable=0;labelPosition=right;points=[];portConstraint=eastwest;strokeColor=inherit;" vertex="1" parent="RhStBzJ_8Y4dhNbDi5qE-1">
          <mxGeometry y="52" width="160" height="8" as="geometry" />
        </mxCell>
        <mxCell id="RhStBzJ_8Y4dhNbDi5qE-4" value="+ open(name : string): bool&lt;br&gt;+ close(): bool&lt;br&gt;+ read(): char*" style="text;strokeColor=none;fillColor=none;align=left;verticalAlign=top;spacingLeft=4;spacingRight=4;overflow=hidden;rotatable=0;points=[[0,0.5],[1,0.5]];portConstraint=eastwest;whiteSpace=wrap;html=1;" vertex="1" parent="RhStBzJ_8Y4dhNbDi5qE-1">
          <mxGeometry y="60" width="160" height="60" as="geometry" />
        </mxCell>
        <mxCell id="wDavrbQ9-XLE2-c48Ypt-1" value="" style="shape=flexArrow;endArrow=classic;html=1;rounded=0;" edge="1" parent="1">
          <mxGeometry width="50" height="50" relative="1" as="geometry">
            <mxPoint x="220" y="470" as="sourcePoint" />
            <mxPoint x="140" y="510" as="targetPoint" />
          </mxGeometry>
        </mxCell>
        <mxCell id="wDavrbQ9-XLE2-c48Ypt-2" value="尝试使用Future形式去做" style="ellipse;whiteSpace=wrap;html=1;" vertex="1" parent="1">
          <mxGeometry x="20" y="480" width="120" height="80" as="geometry" />
        </mxCell>
      </root>
    </mxGraphModel>
  </diagram>
  <diagram id="Gul4vkQth8ShKDHMGEgP" name="第 2 页">
    <mxGraphModel dx="882" dy="687" grid="1" gridSize="10" guides="1" tooltips="1" connect="1" arrows="1" fold="1" page="1" pageScale="1" pageWidth="827" pageHeight="1169" math="0" shadow="0">
      <root>
        <mxCell id="0" />
        <mxCell id="1" parent="0" />
        <mxCell id="tpQDGyeZMhpuyulx4l5z-1" value="Central Idea" style="ellipse;whiteSpace=wrap;html=1;align=center;newEdgeStyle={&quot;edgeStyle&quot;:&quot;entityRelationEdgeStyle&quot;,&quot;startArrow&quot;:&quot;none&quot;,&quot;endArrow&quot;:&quot;none&quot;,&quot;segment&quot;:10,&quot;curved&quot;:1,&quot;sourcePerimeterSpacing&quot;:0,&quot;targetPerimeterSpacing&quot;:0};treeFolding=1;treeMoving=1;" vertex="1" parent="1">
          <mxGeometry x="150" y="290" width="100" height="40" as="geometry" />
        </mxCell>
        <mxCell id="tpQDGyeZMhpuyulx4l5z-2" value="串口操作" style="whiteSpace=wrap;html=1;shape=partialRectangle;top=0;left=0;bottom=1;right=0;points=[[0,1],[1,1]];fillColor=none;align=center;verticalAlign=bottom;routingCenterY=0.5;snapToPoint=1;recursiveResize=0;autosize=1;treeFolding=1;treeMoving=1;newEdgeStyle={&quot;edgeStyle&quot;:&quot;entityRelationEdgeStyle&quot;,&quot;startArrow&quot;:&quot;none&quot;,&quot;endArrow&quot;:&quot;none&quot;,&quot;segment&quot;:10,&quot;curved&quot;:1,&quot;sourcePerimeterSpacing&quot;:0,&quot;targetPerimeterSpacing&quot;:0};" vertex="1" parent="1">
          <mxGeometry x="295" y="200" width="90" height="30" as="geometry" />
        </mxCell>
        <mxCell id="tpQDGyeZMhpuyulx4l5z-3" value="" style="edgeStyle=entityRelationEdgeStyle;startArrow=none;endArrow=none;segment=10;curved=1;sourcePerimeterSpacing=0;targetPerimeterSpacing=0;rounded=0;" edge="1" target="tpQDGyeZMhpuyulx4l5z-2" parent="1" source="tpQDGyeZMhpuyulx4l5z-1">
          <mxGeometry relative="1" as="geometry">
            <mxPoint x="310" y="310" as="sourcePoint" />
          </mxGeometry>
        </mxCell>
        <mxCell id="tpQDGyeZMhpuyulx4l5z-4" value="文件读取" style="whiteSpace=wrap;html=1;shape=partialRectangle;top=0;left=0;bottom=1;right=0;points=[[0,1],[1,1]];fillColor=none;align=center;verticalAlign=bottom;routingCenterY=0.5;snapToPoint=1;recursiveResize=0;autosize=1;treeFolding=1;treeMoving=1;newEdgeStyle={&quot;edgeStyle&quot;:&quot;entityRelationEdgeStyle&quot;,&quot;startArrow&quot;:&quot;none&quot;,&quot;endArrow&quot;:&quot;none&quot;,&quot;segment&quot;:10,&quot;curved&quot;:1,&quot;sourcePerimeterSpacing&quot;:0,&quot;targetPerimeterSpacing&quot;:0};" vertex="1" parent="1">
          <mxGeometry x="300" y="290" width="90" height="30" as="geometry" />
        </mxCell>
        <mxCell id="tpQDGyeZMhpuyulx4l5z-5" value="" style="edgeStyle=entityRelationEdgeStyle;startArrow=none;endArrow=none;segment=10;curved=1;sourcePerimeterSpacing=0;targetPerimeterSpacing=0;rounded=0;" edge="1" target="tpQDGyeZMhpuyulx4l5z-4" parent="1" source="tpQDGyeZMhpuyulx4l5z-1">
          <mxGeometry relative="1" as="geometry">
            <mxPoint x="294" y="330" as="sourcePoint" />
          </mxGeometry>
        </mxCell>
        <mxCell id="tpQDGyeZMhpuyulx4l5z-6" value="烧录" style="whiteSpace=wrap;html=1;shape=partialRectangle;top=0;left=0;bottom=1;right=0;points=[[0,1],[1,1]];fillColor=none;align=center;verticalAlign=bottom;routingCenterY=0.5;snapToPoint=1;recursiveResize=0;autosize=1;treeFolding=1;treeMoving=1;newEdgeStyle={&quot;edgeStyle&quot;:&quot;entityRelationEdgeStyle&quot;,&quot;startArrow&quot;:&quot;none&quot;,&quot;endArrow&quot;:&quot;none&quot;,&quot;segment&quot;:10,&quot;curved&quot;:1,&quot;sourcePerimeterSpacing&quot;:0,&quot;targetPerimeterSpacing&quot;:0};" vertex="1" parent="1">
          <mxGeometry x="310" y="370" width="60" height="30" as="geometry" />
        </mxCell>
        <mxCell id="tpQDGyeZMhpuyulx4l5z-7" value="" style="edgeStyle=entityRelationEdgeStyle;startArrow=none;endArrow=none;segment=10;curved=1;sourcePerimeterSpacing=0;targetPerimeterSpacing=0;rounded=0;" edge="1" target="tpQDGyeZMhpuyulx4l5z-6" parent="1" source="tpQDGyeZMhpuyulx4l5z-1">
          <mxGeometry relative="1" as="geometry">
            <mxPoint x="270" y="420" as="sourcePoint" />
          </mxGeometry>
        </mxCell>
        <mxCell id="tpQDGyeZMhpuyulx4l5z-8" value="日志记录" style="whiteSpace=wrap;html=1;shape=partialRectangle;top=0;left=0;bottom=1;right=0;points=[[0,1],[1,1]];fillColor=none;align=center;verticalAlign=bottom;routingCenterY=0.5;snapToPoint=1;recursiveResize=0;autosize=1;treeFolding=1;treeMoving=1;newEdgeStyle={&quot;edgeStyle&quot;:&quot;entityRelationEdgeStyle&quot;,&quot;startArrow&quot;:&quot;none&quot;,&quot;endArrow&quot;:&quot;none&quot;,&quot;segment&quot;:10,&quot;curved&quot;:1,&quot;sourcePerimeterSpacing&quot;:0,&quot;targetPerimeterSpacing&quot;:0};" vertex="1" parent="1">
          <mxGeometry x="300" y="470" width="90" height="30" as="geometry" />
        </mxCell>
        <mxCell id="tpQDGyeZMhpuyulx4l5z-9" value="" style="edgeStyle=entityRelationEdgeStyle;startArrow=none;endArrow=none;segment=10;curved=1;sourcePerimeterSpacing=0;targetPerimeterSpacing=0;rounded=0;" edge="1" target="tpQDGyeZMhpuyulx4l5z-8" parent="1" source="tpQDGyeZMhpuyulx4l5z-1">
          <mxGeometry relative="1" as="geometry">
            <mxPoint x="270" y="480" as="sourcePoint" />
          </mxGeometry>
        </mxCell>
        <mxCell id="tpQDGyeZMhpuyulx4l5z-11" style="edgeStyle=elbowEdgeStyle;rounded=0;orthogonalLoop=1;jettySize=auto;html=1;startArrow=none;endArrow=none;exitX=0;exitY=0.5;exitDx=0;exitDy=0;" edge="1" parent="1" source="tpQDGyeZMhpuyulx4l5z-10" target="tpQDGyeZMhpuyulx4l5z-2">
          <mxGeometry relative="1" as="geometry" />
        </mxCell>
        <UserObject label="1、初始化&lt;br&gt;2、连接&lt;br&gt;3、断开&lt;br&gt;4、写数据&lt;br&gt;5、读数据&lt;br&gt;6、释放" treeRoot="1" id="tpQDGyeZMhpuyulx4l5z-10">
          <mxCell style="whiteSpace=wrap;html=1;align=left;treeFolding=1;treeMoving=1;newEdgeStyle={&quot;edgeStyle&quot;:&quot;elbowEdgeStyle&quot;,&quot;startArrow&quot;:&quot;none&quot;,&quot;endArrow&quot;:&quot;none&quot;};" vertex="1" parent="1">
            <mxGeometry x="500" y="175" width="90" height="110" as="geometry" />
          </mxCell>
        </UserObject>
        <mxCell id="tpQDGyeZMhpuyulx4l5z-13" style="edgeStyle=elbowEdgeStyle;rounded=0;orthogonalLoop=1;jettySize=auto;html=1;startArrow=none;endArrow=none;exitX=0;exitY=0.5;exitDx=0;exitDy=0;" edge="1" parent="1" source="tpQDGyeZMhpuyulx4l5z-12" target="tpQDGyeZMhpuyulx4l5z-4">
          <mxGeometry relative="1" as="geometry" />
        </mxCell>
        <UserObject label="1、打开文件&lt;br&gt;2、读取数据&lt;br&gt;3、关闭文件" treeRoot="1" id="tpQDGyeZMhpuyulx4l5z-12">
          <mxCell style="whiteSpace=wrap;html=1;align=center;treeFolding=1;treeMoving=1;newEdgeStyle={&quot;edgeStyle&quot;:&quot;elbowEdgeStyle&quot;,&quot;startArrow&quot;:&quot;none&quot;,&quot;endArrow&quot;:&quot;none&quot;};" vertex="1" parent="1">
            <mxGeometry x="610" y="290" width="120" height="60" as="geometry" />
          </mxCell>
        </UserObject>
        <mxCell id="tpQDGyeZMhpuyulx4l5z-15" style="edgeStyle=elbowEdgeStyle;rounded=0;orthogonalLoop=1;jettySize=auto;html=1;startArrow=none;endArrow=none;exitX=0;exitY=0.5;exitDx=0;exitDy=0;" edge="1" parent="1" source="tpQDGyeZMhpuyulx4l5z-14" target="tpQDGyeZMhpuyulx4l5z-6">
          <mxGeometry relative="1" as="geometry">
            <Array as="points">
              <mxPoint x="430" y="410" />
            </Array>
          </mxGeometry>
        </mxCell>
        <UserObject label="1、填充0xFF满足整数K大小&lt;br&gt;2、跳转到boot&lt;br&gt;2、发送一包1024字节数据&lt;br&gt;3、等待回复校验&lt;br&gt;4、等待升级结束" treeRoot="1" id="tpQDGyeZMhpuyulx4l5z-14">
          <mxCell style="whiteSpace=wrap;html=1;align=left;treeFolding=1;treeMoving=1;newEdgeStyle={&quot;edgeStyle&quot;:&quot;elbowEdgeStyle&quot;,&quot;startArrow&quot;:&quot;none&quot;,&quot;endArrow&quot;:&quot;none&quot;};" vertex="1" parent="1">
            <mxGeometry x="570" y="360" width="170" height="100" as="geometry" />
          </mxCell>
        </UserObject>
        <mxCell id="tpQDGyeZMhpuyulx4l5z-17" style="edgeStyle=elbowEdgeStyle;rounded=0;orthogonalLoop=1;jettySize=auto;html=1;startArrow=none;endArrow=none;exitX=0;exitY=0.5;exitDx=0;exitDy=0;" edge="1" parent="1" source="tpQDGyeZMhpuyulx4l5z-16" target="tpQDGyeZMhpuyulx4l5z-8">
          <mxGeometry relative="1" as="geometry" />
        </mxCell>
        <UserObject label="1、文件日志记录&lt;br&gt;2、界面日志记录" treeRoot="1" id="tpQDGyeZMhpuyulx4l5z-16">
          <mxCell style="whiteSpace=wrap;html=1;align=center;treeFolding=1;treeMoving=1;newEdgeStyle={&quot;edgeStyle&quot;:&quot;elbowEdgeStyle&quot;,&quot;startArrow&quot;:&quot;none&quot;,&quot;endArrow&quot;:&quot;none&quot;};" vertex="1" parent="1">
            <mxGeometry x="470" y="480" width="120" height="60" as="geometry" />
          </mxCell>
        </UserObject>
      </root>
    </mxGraphModel>
  </diagram>
</mxfile>
